<svg width="111" height="34" viewBox="0 0 111 34" fill="none" xmlns="http://www.w3.org/2000/svg">
<path fill-rule="evenodd" clip-rule="evenodd" d="M0 4C0 1.79086 1.79086 0 4 0H106.5C108.709 0 110.5 1.79086 110.5 4V30C110.5 32.2091 108.709 34 106.5 34H4C1.79086 34 0 32.2091 0 30V4Z" fill="black"/>
<path d="M39.2246 12.4729C38.4513 12.4775 37.7857 12.2148 37.2278 11.6848C36.6753 11.1548 36.3963 10.4365 36.3909 9.52982C36.3873 8.92183 36.5227 8.38768 36.7973 7.92736C37.0719 7.46704 37.4192 7.12629 37.8392 6.9051C38.2592 6.67858 38.7092 6.56388 39.1892 6.56101C39.8292 6.55717 40.3688 6.71661 40.8081 7.03932C41.2526 7.35666 41.5486 7.79223 41.6959 8.34603L40.9695 8.60638C40.8602 8.18036 40.6529 7.8536 40.3476 7.62609C40.0422 7.39325 39.6575 7.27822 39.1935 7.28099C38.6388 7.28432 38.1653 7.48449 37.7731 7.88151C37.3807 8.2732 37.1867 8.82104 37.1909 9.52503C37.1951 10.229 37.3957 10.7772 37.7927 11.1695C38.1898 11.5617 38.6656 11.7562 39.2203 11.7529C39.6843 11.7501 40.0702 11.6252 40.378 11.378C40.6859 11.1255 40.8999 10.7935 41.0201 10.3821L41.7176 10.6339C41.5662 11.1842 41.2702 11.6286 40.8296 11.9673C40.3942 12.3006 39.8592 12.4691 39.2246 12.4729ZM43.3181 11.4164C43.5542 11.655 43.8402 11.7732 44.1762 11.7712C44.5122 11.7692 44.7942 11.6475 45.022 11.4062C45.2552 11.1594 45.3705 10.8201 45.368 10.3881C45.3654 9.96141 45.2461 9.62878 45.01 9.39019C44.7792 9.14624 44.4958 9.02527 44.1598 9.02728C43.8238 9.02929 43.5392 9.15367 43.306 9.4004C43.0781 9.64177 42.9654 9.97578 42.968 10.4024C42.9706 10.8344 43.0873 11.1724 43.3181 11.4164ZM42.7433 8.94776C43.1143 8.5562 43.5851 8.35871 44.1558 8.35529C44.7264 8.35187 45.1969 8.54373 45.5672 8.93085C45.9429 9.3126 46.1324 9.79681 46.1359 10.3835C46.1395 10.9755 45.9584 11.4672 45.5928 11.8587C45.2271 12.2449 44.7562 12.4398 44.1802 12.4432C43.6043 12.4467 43.1311 12.2575 42.7608 11.8757C42.3905 11.4886 42.2036 10.999 42.2 10.407C42.1965 9.82039 42.3776 9.33396 42.7433 8.94776ZM47.8536 12.3012L47.1096 12.3057L47.0865 8.45774L47.8065 8.45343L47.8096 8.96542C47.9257 8.76205 48.0901 8.6064 48.3028 8.49845C48.5155 8.39051 48.7392 8.33584 48.9738 8.33443C49.2245 8.33293 49.4542 8.39289 49.6629 8.51431C49.8717 8.63573 50.0274 8.81613 50.1302 9.05552C50.3939 8.5686 50.8218 8.32336 51.4138 8.31982C51.7818 8.31761 52.0945 8.44108 52.352 8.69021C52.6149 8.9393 52.7477 9.30118 52.7505 9.77584L52.7655 12.2718L52.0215 12.2762L52.007 9.86029C52.0054 9.59363 51.9348 9.38072 51.7952 9.22155C51.6609 9.06235 51.4578 8.98357 51.1858 8.9852C50.9244 8.98676 50.7117 9.08137 50.5475 9.26902C50.3832 9.45134 50.3019 9.68117 50.3036 9.9585L50.3175 12.2865L49.5655 12.291L49.5511 9.875C49.5495 9.60834 49.4789 9.39543 49.3392 9.23626C49.205 9.07706 49.0018 8.99828 48.7298 8.99991C48.4632 9.0015 48.2477 9.09346 48.0835 9.27578C47.9192 9.4581 47.838 9.69326 47.8397 9.98126L47.8536 12.3012ZM54.7128 12.2601L53.9688 12.2646L53.9458 8.41665L54.6898 8.4122L54.7128 12.2601ZM53.9234 7.34477C53.8214 7.23871 53.77 7.11102 53.7691 6.96169C53.7682 6.81236 53.8181 6.68405 53.9188 6.57678C54.0248 6.46948 54.1525 6.41538 54.3018 6.41449C54.4511 6.41359 54.5795 6.46616 54.6868 6.57218C54.794 6.67288 54.8481 6.80055 54.8491 6.95522C54.85 7.10455 54.7974 7.23287 54.6914 7.34017C54.5853 7.44214 54.4576 7.49357 54.3083 7.49447C54.1589 7.49536 54.0306 7.44546 53.9234 7.34477ZM56.7309 10.024L56.7442 12.248L55.9922 12.2525L55.9692 8.40453L56.7052 8.40013L56.7085 8.95212C56.9618 8.50792 57.3552 8.28423 57.8885 8.28104C58.3312 8.27838 58.6707 8.41769 58.907 8.69894C59.1487 8.98017 59.2709 9.34478 59.2736 9.79277L59.2882 12.2327L58.5362 12.2372L58.5224 9.92527C58.5185 9.27995 58.2179 8.95908 57.6206 8.96265C57.3379 8.96435 57.1172 9.067 56.9584 9.27063C56.8049 9.46888 56.7291 9.72001 56.7309 10.024ZM60.2056 12.4352L60.9326 12.2629C60.9609 12.5347 61.0716 12.7581 61.2646 12.9329C61.4577 13.1131 61.6982 13.2023 61.9862 13.2006C62.7702 13.1959 63.1597 12.7775 63.1547 11.9456L63.1514 11.3936C63.0565 11.5808 62.9055 11.7337 62.6982 11.8523C62.4962 11.9708 62.2566 12.0309 61.9792 12.0326C61.4672 12.0357 61.0422 11.8649 60.7041 11.5202C60.3714 11.1702 60.2034 10.7232 60.2001 10.1792C60.1969 9.65123 60.3596 9.20759 60.6881 8.84828C61.0166 8.48364 61.4395 8.29977 61.9568 8.29667C62.5435 8.29315 62.9394 8.49345 63.1445 8.89757L63.1413 8.36158L63.8852 8.35712L63.9066 11.9171C63.9081 12.1731 63.8749 12.4106 63.8068 12.6297C63.7442 12.854 63.6414 13.06 63.4985 13.2475C63.3556 13.435 63.1539 13.5829 62.8932 13.6912C62.6378 13.7994 62.3368 13.8545 61.9901 13.8566C61.5155 13.8594 61.112 13.7258 60.7797 13.4558C60.4475 13.1911 60.2561 12.8509 60.2056 12.4352ZM62.0874 11.3999C62.4128 11.398 62.6761 11.2844 62.8774 11.0592C63.0787 10.8287 63.1782 10.5294 63.176 10.1614C63.1738 9.79341 63.0707 9.49802 62.8667 9.27524C62.6627 9.04712 62.398 8.93404 62.0727 8.93599C61.742 8.93797 61.4734 9.05158 61.2667 9.27682C61.0654 9.50203 60.9658 9.8013 60.9681 10.1746C60.9703 10.5533 61.0708 10.854 61.2695 11.0768C61.4735 11.2943 61.7461 11.402 62.0874 11.3999ZM66.7433 11.1881L67.4218 10.944C67.4497 11.1518 67.5414 11.3246 67.6969 11.4623C67.8524 11.5947 68.0608 11.6602 68.3221 11.6586C68.5248 11.6574 68.6845 11.6084 68.8012 11.5117C68.918 11.4097 68.9759 11.2867 68.975 11.1427C68.9735 10.8867 68.8072 10.7223 68.4761 10.6497L67.8192 10.5096C67.5202 10.4474 67.2847 10.3208 67.1129 10.1298C66.9411 9.93884 66.8544 9.70736 66.8528 9.43536C66.8508 9.1047 66.9824 8.81858 67.2476 8.57698C67.5182 8.33536 67.8401 8.21343 68.2134 8.21119C68.4588 8.20972 68.6777 8.24575 68.8701 8.31926C69.0625 8.38744 69.2124 8.47988 69.3198 8.59657C69.4271 8.71327 69.5078 8.82212 69.5617 8.92313C69.6157 9.02414 69.6563 9.1279 69.6836 9.23441L69.0211 9.48638C69.0101 9.42244 68.991 9.36122 68.964 9.30272C68.9369 9.23888 68.8939 9.1698 68.8348 9.09549C68.781 9.02114 68.7006 8.96295 68.5937 8.92093C68.4868 8.87357 68.3613 8.85032 68.2173 8.85118C68.0306 8.8523 67.8763 8.90389 67.7542 9.00596C67.6375 9.10799 67.5795 9.22834 67.5804 9.36701C67.5818 9.61233 67.7294 9.76612 68.0231 9.82836L68.6479 9.96062C68.9897 10.0332 69.2519 10.1703 69.4344 10.3719C69.6223 10.5681 69.717 10.8102 69.7188 11.0982C69.7206 11.4022 69.5969 11.6776 69.3477 11.9245C69.1038 12.1713 68.7606 12.296 68.3179 12.2986C67.8433 12.3015 67.4719 12.1864 67.2038 11.9533C66.9357 11.7149 66.7822 11.4598 66.7433 11.1881ZM71.4738 11.2477C71.7099 11.4863 71.996 11.6046 72.332 11.6026C72.668 11.6006 72.9499 11.4789 73.1778 11.2375C73.411 10.9908 73.5263 10.6514 73.5237 10.2194C73.5211 9.79276 73.4018 9.46014 73.1657 9.22155C72.9349 8.97759 72.6515 8.85662 72.3155 8.85863C71.9795 8.86065 71.6949 8.98502 71.4617 9.23175C71.2339 9.47312 71.1212 9.80714 71.1237 10.2338C71.1263 10.6658 71.243 11.0038 71.4738 11.2477ZM70.899 8.77912C71.27 8.38755 71.7408 8.19006 72.3115 8.18665C72.8822 8.18323 73.3526 8.37508 73.723 8.7622C74.0986 9.14396 74.2882 9.62817 74.2917 10.2148C74.2952 10.8068 74.1142 11.2986 73.7485 11.6901C73.3828 12.0763 72.912 12.2711 72.336 12.2746C71.76 12.278 71.2869 12.0889 70.9166 11.7071C70.5462 11.3199 70.3593 10.8304 70.3558 10.2384C70.3522 9.65174 70.5333 9.16531 70.899 8.77912ZM76.0519 11.2203C76.288 11.4589 76.574 11.5772 76.91 11.5752C77.246 11.5732 77.5279 11.4515 77.7558 11.2101C77.989 10.9634 78.1043 10.624 78.1017 10.192C78.0992 9.76534 77.9799 9.43272 77.7438 9.19413C77.513 8.95017 77.2296 8.8292 76.8936 8.83121C76.5576 8.83323 76.273 8.9576 76.0398 9.20433C75.8119 9.4457 75.6992 9.77972 75.7018 10.2064C75.7044 10.6384 75.8211 10.9763 76.0519 11.2203ZM75.4771 8.7517C75.8481 8.36013 76.3189 8.16264 76.8895 8.15922C77.4602 8.15581 77.9307 8.34766 78.301 8.73478C78.6766 9.11654 78.8662 9.60074 78.8697 10.1874C78.8733 10.7794 78.6922 11.2712 78.3266 11.6627C77.9609 12.0489 77.49 12.2437 76.914 12.2472C76.338 12.2506 75.8649 12.0614 75.4946 11.6796C75.1243 11.2925 74.9373 10.803 74.9338 10.211C74.9303 9.62432 75.1114 9.13789 75.4771 8.7517ZM80.582 9.88114L80.5954 12.1051L79.8434 12.1096L79.8203 8.26167L80.5563 8.25726L80.5596 8.80925C80.813 8.36506 81.2063 8.14137 81.7396 8.13817C82.1823 8.13552 82.5218 8.27483 82.7581 8.55608C82.9998 8.83731 83.122 9.20191 83.1247 9.64991L83.1393 12.0899L82.3873 12.0944L82.3735 9.78241C82.3696 9.13709 82.069 8.81621 81.4717 8.81979C81.189 8.82148 80.9683 8.92414 80.8095 9.12776C80.6561 9.32602 80.5802 9.57714 80.582 9.88114Z" fill="white"/>
<path d="M42.5018 24.4227H38.3524L37.4842 26.9167H35.5493L39.5957 16.2048H41.2658L45.3196 26.9167H43.3773L42.5018 24.4227ZM38.8747 22.9218H41.9794L40.4271 18.4781L38.8747 22.9218Z" fill="white"/>
<path d="M52.9857 23.0174C52.9857 24.2485 52.7061 25.2319 52.147 25.9677C51.5878 26.6985 50.8374 27.0639 49.8957 27.0639C49.0226 27.0639 48.3237 26.7769 47.7989 26.2031V29.9773H46.0111V18.9563H47.6591L47.7327 19.7656C48.2575 19.128 48.9711 18.8092 49.8736 18.8092C50.8448 18.8092 51.605 19.1721 52.1543 19.898C52.7086 20.619 52.9857 21.622 52.9857 22.9071V23.0174ZM51.2053 22.8629C51.2053 22.0684 51.0459 21.4381 50.727 20.9722C50.4131 20.5062 49.9619 20.2732 49.3733 20.2732C48.6425 20.2732 48.1177 20.5749 47.7989 21.1782V24.7096C48.1226 25.3276 48.6523 25.6366 49.3881 25.6366C49.957 25.6366 50.4009 25.4085 50.7197 24.9524C51.0434 24.4913 51.2053 23.7948 51.2053 22.8629Z" fill="white"/>
<path d="M61.4758 23.0174C61.4758 24.2485 61.1962 25.2319 60.6371 25.9677C60.0779 26.6985 59.3275 27.0639 58.3858 27.0639C57.5128 27.0639 56.8138 26.7769 56.289 26.2031V29.9773H54.5012V18.9563H56.1492L56.2228 19.7656C56.7476 19.128 57.4613 18.8092 58.3637 18.8092C59.3349 18.8092 60.0951 19.1721 60.6444 19.898C61.1987 20.619 61.4758 21.622 61.4758 22.9071V23.0174ZM59.6954 22.8629C59.6954 22.0684 59.536 21.4381 59.2172 20.9722C58.9033 20.5062 58.452 20.2732 57.8634 20.2732C57.1326 20.2732 56.6078 20.5749 56.289 21.1782V24.7096C56.6127 25.3276 57.1424 25.6366 57.8782 25.6366C58.4471 25.6366 58.891 25.4085 59.2098 24.9524C59.5335 24.4913 59.6954 23.7948 59.6954 22.8629Z" fill="white"/>
<path d="M72.5188 24.1578C72.5188 23.6869 72.3521 23.324 72.0185 23.0689C71.6899 22.8139 71.094 22.5564 70.2308 22.2964C69.3675 22.0365 68.6809 21.7471 68.1708 21.4283C67.1947 20.8152 66.7067 20.0157 66.7067 19.0299C66.7067 18.1667 67.0574 17.4555 67.7588 16.8963C68.465 16.3372 69.3798 16.0576 70.503 16.0576C71.2485 16.0576 71.9131 16.1949 72.4967 16.4696C73.0804 16.7443 73.539 17.1367 73.8725 17.6468C74.2061 18.1519 74.3728 18.7135 74.3728 19.3315H72.5188C72.5188 18.7724 72.3422 18.3359 71.9891 18.022C71.6409 17.7032 71.1406 17.5438 70.4883 17.5438C69.8801 17.5438 69.4068 17.6737 69.0683 17.9337C68.7348 18.1936 68.568 18.5566 68.568 19.0225C68.568 19.4149 68.7495 19.7435 69.1125 20.0084C69.4754 20.2683 70.0738 20.5234 70.9076 20.7735C71.7414 21.0188 72.4109 21.3008 72.9161 21.6196C73.4213 21.9335 73.7916 22.2965 74.027 22.7084C74.2625 23.1155 74.3802 23.5938 74.3802 24.1431C74.3802 25.0357 74.0368 25.7469 73.3502 26.2766C72.6684 26.8015 71.7414 27.0639 70.5692 27.0639C69.7942 27.0639 69.0806 26.9216 68.4283 26.6371C67.7808 26.3478 67.2756 25.9505 66.9127 25.4453C66.5546 24.9401 66.3756 24.3515 66.3756 23.6796H68.237C68.237 24.2878 68.4381 24.7586 68.8403 25.0922C69.2425 25.4257 69.8188 25.5924 70.5692 25.5924C71.2166 25.5924 71.7022 25.4625 72.0259 25.2025C72.3545 24.9377 72.5188 24.5894 72.5188 24.1578Z" fill="white"/>
<path d="M78.0808 17.0214V18.9563H79.486V20.2806H78.0808V24.7243C78.0808 25.0284 78.1397 25.2491 78.2574 25.3864C78.38 25.5189 78.5958 25.5851 78.9048 25.5851C79.1108 25.5851 79.3192 25.5606 79.5301 25.5115V26.8946C79.1231 27.0075 78.7307 27.0639 78.353 27.0639C76.9797 27.0639 76.293 26.3061 76.293 24.7905V20.2806H74.9834V18.9563H76.293V17.0214H78.0808Z" fill="white"/>
<path d="M80.3027 22.8629C80.3027 22.0831 80.4571 21.3817 80.7661 20.7588C81.0751 20.131 81.5092 19.6503 82.0684 19.3168C82.6275 18.9784 83.27 18.8092 83.9959 18.8092C85.0701 18.8092 85.9407 19.155 86.6077 19.8465C87.2796 20.5381 87.6426 21.4553 87.6965 22.5981L87.7039 23.0174C87.7039 23.8022 87.5519 24.5036 87.2478 25.1216C86.9486 25.7396 86.517 26.2178 85.9529 26.5562C85.3938 26.8946 84.7463 27.0639 84.0106 27.0639C82.8874 27.0639 81.9874 26.6911 81.3106 25.9456C80.6386 25.1952 80.3027 24.197 80.3027 22.9512V22.8629ZM82.0904 23.0174C82.0904 23.8365 82.2596 24.4791 82.5981 24.945C82.9365 25.4061 83.4073 25.6366 84.0106 25.6366C84.6139 25.6366 85.0823 25.4012 85.4158 24.9303C85.7543 24.4594 85.9235 23.7703 85.9235 22.8629C85.9235 22.0586 85.7494 21.421 85.4011 20.9501C85.0578 20.4792 84.5894 20.2438 83.9959 20.2438C83.4123 20.2438 82.9488 20.4768 82.6054 20.9427C82.2621 21.4038 82.0904 22.0954 82.0904 23.0174Z" fill="white"/>
<path d="M93.3836 20.5896C93.1482 20.5504 92.9054 20.5307 92.6552 20.5307C91.8362 20.5307 91.2844 20.8446 90.9999 21.4725V26.9167H89.2121V18.9563H90.919L90.9631 19.8465C91.3947 19.155 91.9931 18.8092 92.7582 18.8092C93.0133 18.8092 93.2242 18.8435 93.391 18.9122L93.3836 20.5896Z" fill="white"/>
<path d="M97.8714 27.0639C96.7384 27.0639 95.8188 26.7083 95.1125 25.9971C94.4111 25.281 94.0605 24.3295 94.0605 23.1425V22.9218C94.0605 22.1272 94.2125 21.4185 94.5166 20.7956C94.8256 20.1678 95.2572 19.6798 95.8114 19.3315C96.3657 18.9833 96.9837 18.8092 97.6654 18.8092C98.7494 18.8092 99.5856 19.155 100.174 19.8465C100.768 20.5381 101.064 21.5166 101.064 22.782V23.503H95.8629C95.9169 24.1603 96.1352 24.6802 96.5177 25.0627C96.9052 25.4453 97.3908 25.6366 97.9744 25.6366C98.7935 25.6366 99.4606 25.3055 99.9756 24.6434L100.939 25.563C100.621 26.0388 100.194 26.4091 99.6592 26.6739C99.1295 26.9339 98.5336 27.0639 97.8714 27.0639ZM97.6581 20.2438C97.1676 20.2438 96.7703 20.4155 96.4662 20.7588C96.167 21.1021 95.9758 21.5804 95.8924 22.1935H99.2987V22.061C99.2595 21.4626 99.1001 21.0114 98.8205 20.7073C98.5409 20.3983 98.1535 20.2438 97.6581 20.2438Z" fill="white"/>
<path fill-rule="evenodd" clip-rule="evenodd" d="M21.9364 5.66699C20.882 5.71232 19.6043 6.38685 18.8481 7.29373C18.1683 8.0991 17.5749 9.38443 17.7349 10.6169C18.9122 10.7112 20.1118 10.0044 20.8446 9.0971C21.5759 8.18813 22.0711 6.92669 21.9364 5.66699ZM21.8896 27.5965C23.4307 27.5692 24.4067 26.2686 25.3503 24.9599C26.3842 23.5264 26.8408 22.1365 26.9089 21.9292C26.9127 21.9177 26.9153 21.9099 26.9167 21.9059C26.916 21.9056 26.9141 21.9048 26.911 21.9036C26.7628 21.8464 23.9104 20.7459 23.882 17.5647C23.8541 14.9377 26.0618 13.6308 26.3048 13.487C26.3132 13.482 26.3193 13.4784 26.3228 13.4762C24.9941 11.6321 22.925 11.3793 22.1878 11.3504C21.111 11.2471 20.0662 11.6377 19.2126 11.9568C18.6702 12.1597 18.2049 12.3336 17.8577 12.3336C17.4711 12.3336 16.9931 12.1536 16.4567 11.9516C15.7545 11.6871 14.9523 11.385 14.124 11.3994C12.2057 11.4267 10.4354 12.4589 9.4474 14.0905C7.45233 17.3757 8.93577 22.2437 10.8794 24.9075C11.8307 26.2103 12.962 27.6766 14.4497 27.6237C15.114 27.5985 15.5867 27.4074 16.0756 27.2099C16.6407 26.9815 17.2273 26.7445 18.1561 26.7445C19.0407 26.7445 19.6002 26.9742 20.1383 27.1952C20.653 27.4065 21.1482 27.6098 21.8896 27.5965Z" fill="white"/>
</svg>
