<svg width="111" height="111" viewBox="0 0 111 111" fill="none" xmlns="http://www.w3.org/2000/svg">
<g clip-path="url(#clip0_2604_2)">
<path d="M108.38 40.8141L72.4271 37.4795L58.1455 4.31641C57.1456 1.9943 53.8531 1.9943 52.8532 4.31641L38.5718 37.4798L2.61847 40.8141C0.101034 41.0476 -0.916392 44.1788 0.982962 45.8472L28.1098 69.678L20.1712 104.902C19.6153 107.368 22.2789 109.304 24.4527 108.013L55.4995 89.5777L86.5462 108.013C88.72 109.304 91.3838 107.368 90.828 104.902L82.8891 69.678L110.016 45.8472C111.915 44.1788 110.898 41.0476 108.38 40.8141Z" fill="#FFDC64"/>
<path d="M58.1455 4.31641C57.1456 1.9943 53.8531 1.9943 52.8532 4.31641L38.5718 37.4798L2.61847 40.8141C0.101034 41.0476 -0.916392 44.1788 0.982962 45.8472L28.1098 69.678L20.1712 104.902C19.6153 107.368 22.2789 109.304 24.4527 108.013L31.3822 103.898C32.3413 64.4193 50.6844 36.618 65.2072 20.714L58.1455 4.31641Z" fill="#FFC850"/>
</g>
<defs>
<clipPath id="clip0_2604_2">
<rect width="111" height="111" fill="white"/>
</clipPath>
</defs>
</svg>
